# Blender v2.92.0 OBJ File: 'tree.blend'
# www.blender.org
mtllib tree.mtl
o Cube
v -2.509334 0.000000 2.509334
v -2.509334 47.206707 2.509334
v -2.509334 0.000000 -2.509334
v -2.509334 47.206707 -2.509334
v 2.509334 0.000000 2.509334
v 2.509334 47.206707 2.509334
v 2.509334 0.000000 -2.509334
v 2.509334 47.206707 -2.509334
vt 0.375000 0.000000
vt 0.625000 0.000000
vt 0.625000 0.250000
vt 0.375000 0.250000
vt 0.625000 0.500000
vt 0.375000 0.500000
vt 0.625000 0.750000
vt 0.375000 0.750000
vt 0.625000 1.000000
vt 0.375000 1.000000
vt 0.125000 0.500000
vt 0.125000 0.750000
vt 0.875000 0.500000
vt 0.875000 0.750000
vn -1.0000 0.0000 0.0000
vn 0.0000 0.0000 -1.0000
vn 1.0000 0.0000 0.0000
vn 0.0000 0.0000 1.0000
vn 0.0000 -1.0000 0.0000
vn 0.0000 1.0000 0.0000
usemtl None
s off
f 1/1/1 2/2/1 4/3/1 3/4/1
f 3/4/2 4/3/2 8/5/2 7/6/2
f 7/6/3 8/5/3 6/7/3 5/8/3
f 5/8/4 6/7/4 2/9/4 1/10/4
f 3/11/5 7/6/5 5/8/5 1/12/5
f 8/5/6 4/13/6 2/14/6 6/7/6
o Sphere.001
v 0.000000 65.771889 -15.637581
v 0.000000 58.597305 -20.431484
v 0.000000 41.671307 -20.431484
v 0.000000 29.702824 -8.462999
v 3.238648 70.565796 -7.818791
v 5.984242 65.771889 -14.447241
v 7.818790 58.597305 -18.876230
v 8.462997 50.134308 -20.431484
v 7.818790 41.671307 -18.876230
v 5.984242 34.496727 -14.447241
v 3.238649 29.702824 -7.818791
v 5.984241 70.565796 -5.984244
v 11.057437 65.771889 -11.057439
v 14.447239 58.597305 -14.447241
v 15.637580 50.134308 -15.637581
v 14.447239 41.671307 -14.447241
v 11.057437 34.496727 -11.057439
v 5.984242 29.702824 -5.984243
v 7.818788 70.565796 -3.238651
v 14.447237 65.771889 -5.984243
v 18.876226 58.597305 -7.818790
v 20.431482 50.134308 -8.462997
v 18.876226 41.671307 -7.818790
v 14.447237 34.496727 -5.984243
v 7.818789 29.702824 -3.238650
v 8.462995 70.565796 -0.000003
v 15.637576 65.771889 -0.000002
v 20.431480 58.597305 -0.000000
v 22.114874 50.134308 -0.000000
v 20.431480 41.671307 -0.000000
v 15.637576 34.496727 -0.000002
v 8.462995 29.702824 -0.000001
v 7.818787 70.565796 3.238645
v 14.447234 65.771889 5.984240
v 18.876225 58.597305 7.818789
v 20.431477 50.134308 8.462996
v 18.876225 41.671307 7.818789
v 14.447234 34.496727 5.984240
v 7.818787 29.702824 3.238647
v 5.984240 70.565796 5.984238
v 11.057432 65.771889 11.057434
v 14.447234 58.597305 14.447238
v 15.637573 50.134308 15.637577
v 14.447234 41.671307 14.447238
v 11.057432 34.496727 11.057434
v 5.984239 29.702824 5.984240
v 3.238646 70.565796 7.818785
v 5.984236 65.771889 14.447234
v 7.818783 58.597305 18.876225
v 8.462989 50.134308 20.431477
v 7.818783 41.671307 18.876225
v 5.984236 34.496727 14.447234
v 3.238645 29.702824 7.818785
v -0.000002 70.565796 8.462992
v -0.000006 65.771889 15.637572
v -0.000007 58.597305 20.431477
v -0.000007 50.134308 22.114868
v -0.000007 41.671307 20.431477
v -0.000006 34.496727 15.637572
v -0.000004 29.702824 8.462992
v -3.238650 70.565796 7.818783
v -5.984247 65.771889 14.447230
v -7.818795 58.597305 18.876219
v -8.463002 50.134308 20.431473
v -7.818795 41.671307 18.876219
v -5.984247 34.496727 14.447230
v -3.238651 29.702824 7.818783
v -5.984242 70.565796 5.984236
v -11.057440 65.771889 11.057426
v -14.447242 58.597305 14.447227
v -15.637583 50.134308 15.637567
v -14.447242 41.671307 14.447227
v -11.057440 34.496727 11.057426
v -5.984243 29.702824 5.984235
v -7.818788 70.565796 3.238642
v -14.447238 65.771889 5.984231
v -18.876226 58.597305 7.818778
v -20.431482 50.134308 8.462983
v -18.876226 41.671307 7.818778
v -14.447238 34.496727 5.984231
v -7.818789 29.702824 3.238641
v -8.462994 70.565796 -0.000006
v -15.637574 65.771889 -0.000011
v -20.431477 58.597305 -0.000011
v -22.114872 50.134308 -0.000013
v -20.431477 41.671307 -0.000011
v -15.637574 34.496727 -0.000011
v -8.462994 29.702824 -0.000008
v -7.818786 70.565796 -3.238653
v -14.447231 65.771889 -5.984251
v -18.876221 58.597305 -7.818799
v -20.431473 50.134308 -8.463008
v -18.876221 41.671307 -7.818799
v -14.447231 34.496727 -5.984251
v -7.818785 29.702824 -3.238655
v -5.984239 70.565796 -5.984245
v -11.057428 65.771889 -11.057443
v -14.447228 58.597305 -14.447246
v -15.637566 50.134308 -15.637587
v -14.447228 41.671307 -14.447246
v -11.057428 34.496727 -11.057443
v -5.984238 29.702824 -5.984247
v -3.238645 70.565796 -7.818790
v -5.984231 65.771889 -14.447239
v -7.818778 58.597305 -18.876228
v -8.462982 50.134308 -20.431484
v -7.818778 41.671307 -18.876228
v -5.984231 34.496727 -14.447239
v -3.238643 29.702824 -7.818791
v -0.000000 72.249191 -0.000000
v 0.000002 70.565796 -8.462996
v 0.000015 50.134308 -22.114874
v 0.000010 34.496727 -15.637574
v 0.000000 28.019428 -0.000003
vt 0.750000 0.375000
vt 0.750000 0.500000
vt 0.687500 0.500000
vt 0.687500 0.375000
vt 0.750000 0.625000
vt 0.750000 0.750000
vt 0.687500 0.750000
vt 0.687500 0.625000
vt 0.750000 0.875000
vt 0.718750 1.000000
vt 0.687500 0.875000
vt 0.718750 0.000000
vt 0.750000 0.125000
vt 0.687500 0.125000
vt 0.750000 0.250000
vt 0.687500 0.250000
vt 0.656250 0.000000
vt 0.625000 0.125000
vt 0.625000 0.375000
vt 0.625000 0.250000
vt 0.625000 0.625000
vt 0.625000 0.500000
vt 0.625000 0.875000
vt 0.625000 0.750000
vt 0.656250 1.000000
vt 0.562500 0.875000
vt 0.562500 0.750000
vt 0.562500 0.250000
vt 0.562500 0.125000
vt 0.562500 0.500000
vt 0.562500 0.375000
vt 0.562500 0.625000
vt 0.593750 1.000000
vt 0.593750 0.000000
vt 0.500000 0.250000
vt 0.500000 0.125000
vt 0.500000 0.500000
vt 0.500000 0.375000
vt 0.500000 0.750000
vt 0.500000 0.625000
vt 0.531250 1.000000
vt 0.500000 0.875000
vt 0.531250 0.000000
vt 0.468750 1.000000
vt 0.437500 0.875000
vt 0.468750 0.000000
vt 0.437500 0.125000
vt 0.437500 0.375000
vt 0.437500 0.250000
vt 0.437500 0.625000
vt 0.437500 0.500000
vt 0.437500 0.750000
vt 0.375000 0.375000
vt 0.375000 0.250000
vt 0.375000 0.625000
vt 0.375000 0.500000
vt 0.375000 0.875000
vt 0.375000 0.750000
vt 0.375000 0.125000
vt 0.406250 1.000000
vt 0.406250 0.000000
vt 0.312500 0.250000
vt 0.312500 0.125000
vt 0.312500 0.500000
vt 0.312500 0.375000
vt 0.312500 0.750000
vt 0.312500 0.625000
vt 0.343750 1.000000
vt 0.312500 0.875000
vt 0.343750 0.000000
vt 0.250000 0.500000
vt 0.250000 0.375000
vt 0.250000 0.750000
vt 0.250000 0.625000
vt 0.281250 1.000000
vt 0.250000 0.875000
vt 0.281250 0.000000
vt 0.250000 0.125000
vt 0.250000 0.250000
vt 0.218750 0.000000
vt 0.187500 0.125000
vt 0.187500 0.375000
vt 0.187500 0.250000
vt 0.187500 0.625000
vt 0.187500 0.500000
vt 0.187500 0.875000
vt 0.187500 0.750000
vt 0.218750 1.000000
vt 0.125000 0.625000
vt 0.125000 0.500000
vt 0.125000 0.875000
vt 0.125000 0.750000
vt 0.125000 0.250000
vt 0.125000 0.125000
vt 0.125000 0.375000
vt 0.156250 1.000000
vt 0.156250 0.000000
vt 0.062500 0.250000
vt 0.062500 0.125000
vt 0.062500 0.500000
vt 0.062500 0.375000
vt 0.062500 0.750000
vt 0.062500 0.625000
vt 0.093750 1.000000
vt 0.062500 0.875000
vt 0.093750 0.000000
vt 0.000000 0.750000
vt 0.000000 0.625000
vt 0.031250 1.000000
vt 0.000000 0.875000
vt 0.031250 0.000000
vt 0.000000 0.125000
vt 0.000000 0.375000
vt 0.000000 0.250000
vt 0.000000 0.500000
vt 0.968750 0.000000
vt 1.000000 0.125000
vt 0.937500 0.125000
vt 1.000000 0.250000
vt 1.000000 0.375000
vt 0.937500 0.375000
vt 0.937500 0.250000
vt 1.000000 0.500000
vt 1.000000 0.625000
vt 0.937500 0.625000
vt 0.937500 0.500000
vt 1.000000 0.750000
vt 1.000000 0.875000
vt 0.937500 0.875000
vt 0.937500 0.750000
vt 0.968750 1.000000
vt 0.875000 0.875000
vt 0.875000 0.750000
vt 0.875000 0.250000
vt 0.875000 0.125000
vt 0.875000 0.500000
vt 0.875000 0.375000
vt 0.875000 0.625000
vt 0.906250 1.000000
vt 0.906250 0.000000
vt 0.812500 0.250000
vt 0.812500 0.125000
vt 0.812500 0.500000
vt 0.812500 0.375000
vt 0.812500 0.750000
vt 0.812500 0.625000
vt 0.843750 1.000000
vt 0.812500 0.875000
vt 0.843750 0.000000
vt 0.781250 1.000000
vt 0.781250 0.000000
vn 0.0000 -0.3743 -0.9273
vn 0.0000 0.0000 -1.0000
vn 0.3827 0.0000 -0.9239
vn 0.3548 -0.3743 -0.8567
vn 0.0000 0.3743 -0.9273
vn 0.0000 0.6952 -0.7188
vn 0.2751 0.6952 -0.6641
vn 0.3548 0.3743 -0.8567
vn 0.0000 0.9152 -0.4031
vn 0.0000 1.0000 0.0000
vn 0.1542 0.9152 -0.3724
vn 0.0000 -1.0000 0.0000
vn 0.0000 -0.9152 -0.4031
vn 0.1542 -0.9152 -0.3724
vn 0.0000 -0.6952 -0.7188
vn 0.2751 -0.6952 -0.6641
vn 0.2850 -0.9152 -0.2850
vn 0.6557 -0.3743 -0.6557
vn 0.5083 -0.6952 -0.5083
vn 0.6557 0.3743 -0.6557
vn 0.7071 0.0000 -0.7071
vn 0.2850 0.9152 -0.2850
vn 0.5083 0.6952 -0.5083
vn 0.3724 0.9152 -0.1542
vn 0.6641 0.6952 -0.2751
vn 0.6641 -0.6952 -0.2751
vn 0.3724 -0.9152 -0.1542
vn 0.9239 0.0000 -0.3827
vn 0.8567 -0.3743 -0.3548
vn 0.8567 0.3743 -0.3548
vn 0.7188 -0.6952 0.0000
vn 0.4031 -0.9152 0.0000
vn 1.0000 0.0000 0.0000
vn 0.9273 -0.3743 0.0000
vn 0.7188 0.6952 0.0000
vn 0.9273 0.3743 0.0000
vn 0.4031 0.9152 0.0000
vn 0.3724 0.9152 0.1542
vn 0.3724 -0.9152 0.1542
vn 0.8567 -0.3743 0.3548
vn 0.6641 -0.6952 0.2751
vn 0.8567 0.3743 0.3548
vn 0.9239 0.0000 0.3827
vn 0.6641 0.6952 0.2751
vn 0.6557 -0.3743 0.6557
vn 0.5083 -0.6952 0.5083
vn 0.6557 0.3743 0.6557
vn 0.7071 0.0000 0.7071
vn 0.2850 0.9152 0.2850
vn 0.5083 0.6952 0.5083
vn 0.2850 -0.9152 0.2850
vn 0.2751 -0.6952 0.6641
vn 0.1542 -0.9152 0.3724
vn 0.3827 0.0000 0.9239
vn 0.3548 -0.3743 0.8567
vn 0.2751 0.6952 0.6641
vn 0.3548 0.3743 0.8567
vn 0.1542 0.9152 0.3724
vn 0.0000 0.0000 1.0000
vn 0.0000 -0.3743 0.9273
vn 0.0000 0.6952 0.7188
vn 0.0000 0.3743 0.9273
vn 0.0000 0.9152 0.4031
vn 0.0000 -0.9152 0.4031
vn 0.0000 -0.6952 0.7188
vn -0.1542 -0.9152 0.3724
vn -0.3548 -0.3743 0.8567
vn -0.2751 -0.6952 0.6641
vn -0.3548 0.3743 0.8567
vn -0.3827 0.0000 0.9239
vn -0.1542 0.9152 0.3724
vn -0.2751 0.6952 0.6641
vn -0.6557 0.3743 0.6557
vn -0.7071 0.0000 0.7071
vn -0.2850 0.9152 0.2850
vn -0.5083 0.6952 0.5083
vn -0.5083 -0.6952 0.5083
vn -0.2850 -0.9152 0.2850
vn -0.6557 -0.3743 0.6557
vn -0.6641 -0.6952 0.2751
vn -0.3724 -0.9152 0.1542
vn -0.9239 0.0000 0.3827
vn -0.8567 -0.3743 0.3548
vn -0.6641 0.6952 0.2751
vn -0.8567 0.3743 0.3548
vn -0.3724 0.9152 0.1542
vn -0.7188 0.6952 0.0000
vn -0.9273 0.3743 0.0000
vn -0.4031 0.9152 0.0000
vn -0.4031 -0.9152 0.0000
vn -0.9273 -0.3743 0.0000
vn -0.7188 -0.6952 0.0000
vn -1.0000 0.0000 0.0000
vn -0.3724 -0.9152 -0.1542
vn -0.8567 -0.3743 -0.3548
vn -0.6641 -0.6952 -0.2751
vn -0.8567 0.3743 -0.3548
vn -0.9239 0.0000 -0.3827
vn -0.3724 0.9152 -0.1542
vn -0.6641 0.6952 -0.2751
vn -0.2850 0.9152 -0.2850
vn -0.5083 0.6952 -0.5083
vn -0.5083 -0.6952 -0.5083
vn -0.2850 -0.9152 -0.2850
vn -0.7071 0.0000 -0.7071
vn -0.6557 -0.3743 -0.6557
vn -0.6557 0.3743 -0.6557
vn -0.2751 -0.6952 -0.6641
vn -0.1542 -0.9152 -0.3724
vn -0.3827 0.0000 -0.9239
vn -0.3548 -0.3743 -0.8567
vn -0.2751 0.6952 -0.6641
vn -0.3548 0.3743 -0.8567
vn -0.1542 0.9152 -0.3724
usemtl None
s 1
f 11/15/7 120/16/8 16/17/9 17/18/10
f 10/19/11 9/20/12 14/21/13 15/22/14
f 119/23/15 118/24/16 13/25/17
f 122/26/18 12/27/19 19/28/20
f 121/29/21 11/15/7 17/18/10 18/30/22
f 120/16/8 10/19/11 15/22/14 16/17/9
f 9/20/12 119/23/15 13/25/17 14/21/13
f 12/27/19 121/29/21 18/30/22 19/28/20
f 122/31/18 19/28/20 26/32/23
f 18/30/22 17/18/10 24/33/24 25/34/25
f 16/17/9 15/22/14 22/35/26 23/36/27
f 14/21/13 13/25/17 20/37/28 21/38/29
f 19/28/20 18/30/22 25/34/25 26/32/23
f 17/18/10 16/17/9 23/36/27 24/33/24
f 15/22/14 14/21/13 21/38/29 22/35/26
f 13/25/17 118/39/16 20/37/28
f 21/38/29 20/37/28 27/40/30 28/41/31
f 26/32/23 25/34/25 32/42/32 33/43/33
f 24/33/24 23/36/27 30/44/34 31/45/35
f 22/35/26 21/38/29 28/41/31 29/46/36
f 20/37/28 118/47/16 27/40/30
f 122/48/18 26/32/23 33/43/33
f 25/34/25 24/33/24 31/45/35 32/42/32
f 23/36/27 22/35/26 29/46/36 30/44/34
f 33/43/33 32/42/32 39/49/37 40/50/38
f 31/45/35 30/44/34 37/51/39 38/52/40
f 29/46/36 28/41/31 35/53/41 36/54/42
f 27/40/30 118/55/16 34/56/43
f 122/57/18 33/43/33 40/50/38
f 32/42/32 31/45/35 38/52/40 39/49/37
f 30/44/34 29/46/36 36/54/42 37/51/39
f 28/41/31 27/40/30 34/56/43 35/53/41
f 34/56/43 118/58/16 41/59/44
f 122/60/18 40/50/38 47/61/45
f 39/49/37 38/52/40 45/62/46 46/63/47
f 37/51/39 36/54/42 43/64/48 44/65/49
f 35/53/41 34/56/43 41/59/44 42/66/50
f 40/50/38 39/49/37 46/63/47 47/61/45
f 38/52/40 37/51/39 44/65/49 45/62/46
f 36/54/42 35/53/41 42/66/50 43/64/48
f 46/63/47 45/62/46 52/67/51 53/68/52
f 44/65/49 43/64/48 50/69/53 51/70/54
f 42/66/50 41/59/44 48/71/55 49/72/56
f 47/61/45 46/63/47 53/68/52 54/73/57
f 45/62/46 44/65/49 51/70/54 52/67/51
f 43/64/48 42/66/50 49/72/56 50/69/53
f 41/59/44 118/74/16 48/71/55
f 122/75/18 47/61/45 54/73/57
f 54/73/57 53/68/52 60/76/58 61/77/59
f 52/67/51 51/70/54 58/78/60 59/79/61
f 50/69/53 49/72/56 56/80/62 57/81/63
f 48/71/55 118/82/16 55/83/64
f 122/84/18 54/73/57 61/77/59
f 53/68/52 52/67/51 59/79/61 60/76/58
f 51/70/54 50/69/53 57/81/63 58/78/60
f 49/72/56 48/71/55 55/83/64 56/80/62
f 59/79/61 58/78/60 65/85/65 66/86/66
f 57/81/63 56/80/62 63/87/67 64/88/68
f 55/83/64 118/89/16 62/90/69
f 122/91/18 61/77/59 68/92/70
f 60/76/58 59/79/61 66/86/66 67/93/71
f 58/78/60 57/81/63 64/88/68 65/85/65
f 56/80/62 55/83/64 62/90/69 63/87/67
f 61/77/59 60/76/58 67/93/71 68/92/70
f 122/94/18 68/92/70 75/95/72
f 67/93/71 66/86/66 73/96/73 74/97/74
f 65/85/65 64/88/68 71/98/75 72/99/76
f 63/87/67 62/90/69 69/100/77 70/101/78
f 68/92/70 67/93/71 74/97/74 75/95/72
f 66/86/66 65/85/65 72/99/76 73/96/73
f 64/88/68 63/87/67 70/101/78 71/98/75
f 62/90/69 118/102/16 69/100/77
f 72/99/76 71/98/75 78/103/79 79/104/80
f 70/101/78 69/100/77 76/105/81 77/106/82
f 75/95/72 74/97/74 81/107/83 82/108/84
f 73/96/73 72/99/76 79/104/80 80/109/85
f 71/98/75 70/101/78 77/106/82 78/103/79
f 69/100/77 118/110/16 76/105/81
f 122/111/18 75/95/72 82/108/84
f 74/97/74 73/96/73 80/109/85 81/107/83
f 82/108/84 81/107/83 88/112/86 89/113/87
f 80/109/85 79/104/80 86/114/88 87/115/89
f 78/103/79 77/106/82 84/116/90 85/117/91
f 76/105/81 118/118/16 83/119/92
f 122/120/18 82/108/84 89/113/87
f 81/107/83 80/109/85 87/115/89 88/112/86
f 79/104/80 78/103/79 85/117/91 86/114/88
f 77/106/82 76/105/81 83/119/92 84/116/90
f 85/117/91 84/116/90 91/121/93 92/122/94
f 83/119/92 118/123/16 90/124/95
f 122/125/18 89/113/87 96/126/96
f 88/112/86 87/115/89 94/127/97 95/128/98
f 86/114/88 85/117/91 92/122/94 93/129/99
f 84/116/90 83/119/92 90/124/95 91/121/93
f 89/113/87 88/112/86 95/128/98 96/126/96
f 87/115/89 86/114/88 93/129/99 94/127/97
f 122/130/18 96/131/96 103/132/100
f 95/133/98 94/134/97 101/135/101 102/136/102
f 93/137/99 92/138/94 99/139/103 100/140/104
f 91/141/93 90/142/95 97/143/105 98/144/106
f 96/131/96 95/133/98 102/136/102 103/132/100
f 94/134/97 93/137/99 100/140/104 101/135/101
f 92/138/94 91/141/93 98/144/106 99/139/103
f 90/142/95 118/145/16 97/143/105
f 98/144/106 97/143/105 104/146/107 105/147/108
f 103/132/100 102/136/102 109/148/109 110/149/110
f 101/135/101 100/140/104 107/150/111 108/151/112
f 99/139/103 98/144/106 105/147/108 106/152/113
f 97/143/105 118/153/16 104/146/107
f 122/154/18 103/132/100 110/149/110
f 102/136/102 101/135/101 108/151/112 109/148/109
f 100/140/104 99/139/103 106/152/113 107/150/111
f 110/149/110 109/148/109 116/155/114 117/156/115
f 108/151/112 107/150/111 114/157/116 115/158/117
f 106/152/113 105/147/108 112/159/118 113/160/119
f 104/146/107 118/161/16 111/162/120
f 122/163/18 110/149/110 117/156/115
f 109/148/109 108/151/112 115/158/117 116/155/114
f 107/150/111 106/152/113 113/160/119 114/157/116
f 105/147/108 104/146/107 111/162/120 112/159/118
f 111/162/120 118/164/16 119/23/15
f 122/165/18 117/156/115 12/27/19
f 116/155/114 115/158/117 11/15/7 121/29/21
f 114/157/116 113/160/119 10/19/11 120/16/8
f 112/159/118 111/162/120 119/23/15 9/20/12
f 117/156/115 116/155/114 121/29/21 12/27/19
f 115/158/117 114/157/116 120/16/8 11/15/7
f 113/160/119 112/159/118 9/20/12 10/19/11
